# Blender 4.4.3
# www.blender.org
o Arrow
v -1.586439 -0.102587 0.200000
v -1.586439 0.102587 0.200000
v -1.586439 -0.102587 -0.200000
v -1.586439 0.102587 -0.200000
v 0.000000 0.102587 0.200000
v 0.000000 -0.102587 -0.200000
v 0.000000 0.102587 -0.200000
v 1.000000 -0.102587 0.000000
v 1.000000 0.102587 -0.000000
v 0.000000 -0.102587 -0.700000
v 0.000000 0.102587 -0.700000
v 0.000000 -0.102587 0.700000
v 0.000000 0.102587 0.700000
v 0.000000 -0.102587 0.200000
vn -0.0000 -0.0000 -1.0000
vn -0.0000 -0.0000 1.0000
vn 0.5735 -0.0000 0.8192
vn -0.0000 1.0000 -0.0000
vn 0.5735 -0.0000 -0.8192
vn -1.0000 -0.0000 -0.0000
vn -0.0000 -1.0000 -0.0000
vt 0.625000 0.250000
vt 0.375000 0.312500
vt 0.375000 0.250000
vt 0.625000 0.937500
vt 0.375000 1.000000
vt 0.375000 0.937500
vt 0.000000 0.000000
vt 0.625000 0.875000
vt 0.375000 0.875000
vt 0.812500 0.500000
vt 0.875000 0.750000
vt 0.625000 0.375000
vt 0.375000 0.375000
vt 0.625000 0.312500
vt 0.187500 0.750000
vt 0.187500 0.500000
vt 0.625000 0.000000
vt 0.375000 0.000000
vt 0.625000 1.000000
vt 0.812500 0.750000
vt 0.750000 0.750000
vt 0.750000 0.500000
vt 0.875000 0.500000
vt 0.250000 0.750000
vt 0.125000 0.750000
vt 0.125000 0.500000
vt 0.250000 0.500000
s 1
f 4/1/1 6/2/1 3/3/1
f 5/4/2 1/5/2 14/6/2
f 8/7/3 13/8/3 12/9/3
f 9/7/4 7/10/4 2/11/4
f 11/12/5 8/7/5 10/13/5
f 7/14/6 10/13/6 6/2/6
f 8/7/7 14/15/7 6/16/7
f 2/17/6 3/3/6 1/18/6
f 13/8/6 14/6/6 12/9/6
f 4/1/1 7/14/1 6/2/1
f 5/4/2 2/19/2 1/5/2
f 8/7/3 9/7/3 13/8/3
f 5/20/4 13/21/4 9/7/4
f 9/7/4 11/22/4 7/10/4
f 7/10/4 4/23/4 2/11/4
f 2/11/4 5/20/4 9/7/4
f 11/12/5 9/7/5 8/7/5
f 7/14/6 11/12/6 10/13/6
f 8/7/7 12/24/7 14/15/7
f 14/15/7 1/25/7 3/26/7
f 6/16/7 10/27/7 8/7/7
f 14/15/7 3/26/7 6/16/7
f 2/17/6 4/1/6 3/3/6
f 13/8/6 5/4/6 14/6/6
